<?xml version="1.0" encoding="utf-8"?>
<!-- Generator: Adobe Illustrator 27.8.1, SVG Export Plug-In . SVG Version: 6.00 Build 0)  -->
<svg version="1.1" id="Layer_1" xmlns="http://www.w3.org/2000/svg" xmlns:xlink="http://www.w3.org/1999/xlink" x="0px" y="0px"
	 viewBox="0 0 27 24" style="enable-background:new 0 0 27 24;" xml:space="preserve">
<style type="text/css">
	.st0{fill:#231D35;}
</style>
<path class="st0" d="M22.2,8.4c0,0.2-0.1,0.5-0.1,0.7l-7.4,1C14.9,9.5,15,9,15,8.5c0.1-0.5,0.1-0.9,0-1.3c-0.1-0.3-0.3-0.6-0.5-0.7
	c-0.3-0.2-0.6-0.2-1-0.2c-0.6,0-1.1,0.2-1.6,0.5c-0.5,0.4-0.8,0.9-1,1.7c-0.2,0.6-0.3,1.3-0.4,1.9c0,0.1,0,0.2,0,0.2l-7.4,1L0,12
	c0,0,3.1-3.1,4.5-5.6l0,0C4.9,5.7,5.4,4.9,6,4.3c1-1.1,2.3-2,3.7-2.6c1.5-0.6,3.1-0.9,4.9-0.9s3.3,0.3,4.5,0.9s2.1,1.4,2.7,2.6
	C22.4,5.4,22.5,6.8,22.2,8.4z M23.9,10.9L23.9,10.9l-7.4,1c0,0.1,0,0.2,0,0.2c-0.1,0.7-0.3,1.3-0.4,1.9c-0.1,0.2-0.1,0.4-0.2,0.6
	c-0.2,0.5-0.4,0.9-0.8,1.1c-0.4,0.4-1,0.5-1.6,0.5c-0.4,0-0.7-0.1-1-0.2c-0.3-0.2-0.5-0.4-0.6-0.7s-0.1-0.8,0-1.3
	c0.1-0.6,0.2-1.1,0.3-1.7l0,0l-7.4,1c-0.1,0.3-0.1,0.6-0.2,0.8c-0.3,1.6-0.1,3,0.4,4.1s1.4,1.9,2.7,2.5s2.8,0.8,4.6,0.8
	c0.6,0,1.1,0,1.6-0.1l0.6,1c0.1,0.1,0.2,0.2,0.3,0.4c0.1,0.2,0.4,0.2,0.7,0.2h5.4c0.2,0,0.3-0.1,0.5-0.2c0.1-0.1,0.2-0.3,0.2-0.4
	s0-0.2,0-0.2l-1.5-3.1c1-0.8,1.8-1.9,2.3-3.1c0-0.1,0.1-0.1,0.1-0.2l0,0c1.4-2.5,4.5-5.6,4.5-5.6L23.9,10.9z"/>
</svg>
